<?xml version="1.0" standalone="no"?>
<!DOCTYPE svg PUBLIC "-//W3C//DTD SVG 20010904//EN"
 "http://www.w3.org/TR/2001/REC-SVG-20010904/DTD/svg10.dtd">
<svg version="1.0" xmlns="http://www.w3.org/2000/svg"
 width="50pt" height="50pt" viewBox="0 0 225.000000 225.000000"
 preserveAspectRatio="xMidYMid meet">

<g transform="translate(0.000000,225.000000) scale(0.100000,-0.100000)"
fill="#000000" stroke="none">
<path d="M1537 2205 c-9 -61 -30 -98 -64 -114 -15 -8 -87 -17 -159 -21 -139
-9 -170 -18 -213 -64 l-24 -26 -474 0 -473 0 -2 -940 -3 -940 640 0 640 0 37
-25 c74 -50 136 -68 238 -69 105 0 163 16 241 65 25 16 55 29 67 29 16 0 22 6
22 22 0 11 12 36 26 55 14 18 37 59 52 91 24 51 27 68 27 172 0 105 -2 120
-28 175 -15 32 -39 74 -52 91 l-25 33 0 620 0 621 -431 0 c-367 0 -430 2 -420
14 20 24 97 36 239 36 201 0 262 23 291 109 15 47 14 91 -3 91 -9 0 -16 -17
-20 -45 -9 -60 -44 -100 -100 -114 -66 -16 -73 -14 -43 17 30 31 47 79 47 129
0 52 -26 42 -33 -12z m-477 -470 l0 -45 -85 0 -85 0 0 -125 c0 -104 -2 -125
-15 -125 -11 0 -15 12 -15 50 0 55 -14 64 -45 30 -11 -13 -16 -30 -13 -50 l5
-30 -224 0 -223 0 0 99 c0 110 8 142 48 185 50 53 63 55 370 56 l282 0 0 -45z
m620 23 c78 -40 99 -91 100 -235 l0 -83 -210 0 c-205 0 -210 1 -200 19 14 28
13 38 -10 61 -35 35 -50 26 -50 -30 0 -27 -4 -50 -10 -50 -6 0 -10 48 -10 125
l0 125 -95 0 -95 0 0 45 0 45 268 0 c258 0 269 -1 312 -22z m-790 -553 l0
-124 68 -3 67 -3 3 -55 c4 -63 22 -90 62 -90 40 0 63 32 68 95 l4 55 64 0 64
0 0 125 0 125 245 0 245 0 -2 -227 -3 -226 -71 2 c-200 6 -375 -114 -438 -303
-18 -52 -23 -173 -11 -238 l7 -38 -378 0 c-427 0 -434 1 -490 76 l-29 37 -3
459 -3 458 266 0 265 0 0 -125z m1013 -576 c50 -14 103 -61 118 -106 6 -21 9
-61 6 -95 -12 -130 -111 -194 -279 -180 l-48 4 0 187 c0 103 3 191 7 194 10
11 154 8 196 -4z m-298 -29 c37 -34 35 -90 -4 -123 l-29 -24 28 -16 c40 -24
55 -66 40 -112 -21 -64 -105 -97 -194 -74 -42 10 -47 14 -44 38 3 27 1 27 80
14 50 -8 88 16 88 56 0 36 -21 53 -73 60 -37 5 -42 9 -42 31 0 21 5 25 35 28
85 8 97 92 14 92 -18 0 -44 -4 -57 -9 -22 -9 -26 -7 -32 16 -3 14 -4 27 -3 29
15 14 62 23 110 21 44 -3 64 -9 83 -27z"/>
<path d="M1793 582 c-23 -3 -23 -6 -23 -144 l0 -141 52 7 c28 4 60 12 70 17
35 19 58 70 58 131 0 49 -4 62 -28 89 -28 31 -82 48 -129 41z"/>
</g>
</svg>
