<?xml version="1.0" standalone="no"?>
<!DOCTYPE svg PUBLIC "-//W3C//DTD SVG 20010904//EN"
 "http://www.w3.org/TR/2001/REC-SVG-20010904/DTD/svg10.dtd">
<svg version="1.0" xmlns="http://www.w3.org/2000/svg"
 width="50pt" height="50pt" viewBox="0 0 225.000000 225.000000"
 preserveAspectRatio="xMidYMid meet">

<g transform="translate(0.000000,225.000000) scale(0.100000,-0.100000)"
fill="#000000" stroke="none">
<path d="M975 2239 c-366 -46 -713 -302 -871 -643 -168 -364 -123 -815 114
-1132 74 -99 201 -221 293 -280 564 -365 1321 -159 1619 441 210 424 136 927
-187 1266 -257 270 -601 394 -968 348z m-34 -240 l139 -100 0 -157 -1 -157
-206 -149 c-113 -82 -216 -151 -227 -152 -12 -2 -82 18 -156 44 l-135 47 -49
157 -49 157 43 58 c64 85 160 175 256 239 79 53 203 113 233 114 7 0 76 -45
152 -101z m601 72 c144 -61 311 -194 408 -324 l43 -58 -49 -157 -49 -157 -140
-48 c-77 -26 -147 -45 -157 -43 -9 2 -109 71 -222 152 l-205 149 -1 157 0 156
138 101 c75 55 144 100 152 100 8 0 45 -12 82 -28z m506 -876 c81 -57 112 -85
112 -100 0 -129 -64 -356 -135 -477 l-43 -74 -152 -23 -152 -23 -104 103 -103
104 74 230 c41 127 78 236 83 244 10 18 283 111 298 102 6 -3 61 -42 122 -86z
m-1559 37 l135 -47 83 -255 82 -255 -104 -105 -104 -104 -128 18 c-70 10 -137
22 -148 26 -33 12 -119 169 -158 288 -32 96 -66 283 -56 311 7 18 224 169 244
170 11 0 80 -21 154 -47z m1025 -701 l98 -99 -16 -103 c-10 -57 -21 -113 -26
-125 -6 -16 -36 -30 -117 -57 -135 -45 -257 -62 -388 -53 -115 7 -186 22 -306
66 l-86 31 -18 106 -17 106 113 113 114 114 275 0 275 0 99 -99z"/>
</g>
</svg>
