<?xml version="1.0" standalone="no"?>
<!DOCTYPE svg PUBLIC "-//W3C//DTD SVG 20010904//EN"
 "http://www.w3.org/TR/2001/REC-SVG-20010904/DTD/svg10.dtd">
<svg version="1.0" xmlns="http://www.w3.org/2000/svg"
 width="50pt" height="50pt" viewBox="0 0 200.000000 200.000000"
 preserveAspectRatio="xMidYMid meet">

<g transform="translate(0.000000,200.000000) scale(0.100000,-0.100000)"
fill="#000000" stroke="none">
<path d="M899 1676 c-183 -49 -314 -237 -294 -423 14 -132 109 -263 235 -322
48 -23 68 -26 160 -26 92 0 112 3 160 26 116 55 204 167 230 293 55 272 -220
525 -491 452z"/>
<path d="M541 779 c-128 -25 -228 -137 -251 -284 -10 -61 -9 -86 6 -167 l6
-28 698 0 699 0 6 38 c4 20 8 49 11 63 8 42 -15 157 -40 208 -46 88 -127 150
-224 170 -63 13 -844 13 -911 0z"/>
</g>
</svg>
